<?xml version="1.0" encoding="UTF-8" standalone="no"?>
<svg
   xmlns:dc="http://purl.org/dc/elements/1.1/"
   xmlns:cc="http://creativecommons.org/ns#"
   xmlns:rdf="http://www.w3.org/1999/02/22-rdf-syntax-ns#"
   xmlns:svg="http://www.w3.org/2000/svg"
   xmlns="http://www.w3.org/2000/svg"
   id="svg8"
   version="1.1"
   viewBox="0 0 338.66666 238.38959"
   height="901"
   width="1280">
  <defs
     id="defs2" />
  <metadata
     id="metadata5">
    <rdf:RDF>
      <cc:Work
         rdf:about="">
        <dc:format>image/svg+xml</dc:format>
        <dc:type
           rdf:resource="http://purl.org/dc/dcmitype/StillImage" />
        <dc:title></dc:title>
      </cc:Work>
    </rdf:RDF>
  </metadata>
  <g
     transform="translate(0,-58.6104)"
     id="layer1">
    <rect
       y="59.130104"
       x="-0.53453904"
       height="239.4735"
       width="341.57047"
       id="rect815"
       style="opacity:1;fill:#c7ad3a;fill-opacity:1;fill-rule:nonzero;stroke:#e39c3f;stroke-width:0.78399998;stroke-linecap:round;stroke-linejoin:round;stroke-miterlimit:4;stroke-dasharray:none;stroke-opacity:1;paint-order:normal" />
    <g
       transform="matrix(1.651044,0,0,1.9327138,28.291539,105.98017)"
       id="g976">
      <path
         style="fill:#424a60"
         d="M 41.595,58 H 16.405 C 14.525,58 13,56.475 13,54.595 V 3.405 C 13,1.525 14.525,0 16.405,0 H 41.594 C 43.475,0 45,1.525 45,3.405 V 54.594 C 45,56.475 43.475,58 41.595,58 Z"
         id="path882" />
      <rect
         x="13"
         y="6"
         style="fill:#e7eced"
         width="32"
         height="40"
         id="rect884" />
      <circle
         style="fill:#262b35"
         cx="29"
         cy="52"
         r="3"
         id="circle886" />
      <path
         style="fill:#262b35"
         d="M 29,4 H 25 C 24.447,4 24,3.553 24,3 24,2.447 24.447,2 25,2 h 4 c 0.553,0 1,0.447 1,1 0,0.553 -0.447,1 -1,1 z"
         id="path888" />
      <path
         style="fill:#262b35"
         d="M 33,4 H 32 C 31.447,4 31,3.553 31,3 31,2.447 31.447,2 32,2 h 1 c 0.553,0 1,0.447 1,1 0,0.553 -0.447,1 -1,1 z"
         id="path890" />
      <path
         style="fill:#3083c9"
         d="M 30.962,17.019 H 27.038 C 26.465,17.019 26,16.554 26,15.981 v -3.924 c 0,-0.573 0.465,-1.038 1.038,-1.038 h 3.924 c 0.573,0 1.038,0.465 1.038,1.038 v 3.924 c 0,0.573 -0.465,1.038 -1.038,1.038 z"
         id="path892" />
      <path
         style="fill:#88c057"
         d="M 21.962,17.019 H 18.038 C 17.465,17.019 17,16.554 17,15.981 v -3.924 c 0,-0.573 0.465,-1.038 1.038,-1.038 h 3.924 c 0.573,0 1.038,0.465 1.038,1.038 v 3.924 c 0,0.573 -0.465,1.038 -1.038,1.038 z"
         id="path894" />
      <path
         style="fill:#dc691d"
         d="M 39.962,17.019 H 36.038 C 35.465,17.019 35,16.554 35,15.981 v -3.924 c 0,-0.573 0.465,-1.038 1.038,-1.038 h 3.924 c 0.573,0 1.038,0.465 1.038,1.038 v 3.924 c 0,0.573 -0.465,1.038 -1.038,1.038 z"
         id="path896" />
      <path
         style="fill:#ebba16"
         d="M 30.962,26 H 27.038 C 26.465,26 26,25.535 26,24.962 V 21.038 C 26,20.465 26.465,20 27.038,20 h 3.924 C 31.535,20 32,20.465 32,21.038 v 3.924 C 32,25.535 31.535,26 30.962,26 Z"
         id="path898" />
      <path
         style="fill:#7383bf"
         d="M 21.962,26 H 18.038 C 17.465,26 17,25.535 17,24.962 V 21.038 C 17,20.465 17.465,20 18.038,20 h 3.924 C 22.535,20 23,20.465 23,21.038 v 3.924 C 23,25.535 22.535,26 21.962,26 Z"
         id="path900" />
      <path
         style="fill:#dd352e"
         d="M 39.962,26 H 36.038 C 35.465,26 35,25.535 35,24.962 V 21.038 C 35,20.465 35.465,20 36.038,20 h 3.924 C 40.535,20 41,20.465 41,21.038 v 3.924 C 41,25.535 40.535,26 39.962,26 Z"
         id="path902" />
      <path
         style="fill:#a485be"
         d="M 30.962,35 H 27.038 C 26.465,35 26,34.535 26,33.962 V 30.038 C 26,29.465 26.465,29 27.038,29 h 3.924 C 31.535,29 32,29.465 32,30.038 v 3.924 C 32,34.535 31.535,35 30.962,35 Z"
         id="path904" />
      <path
         style="fill:#ea6248"
         d="M 21.962,35 H 18.038 C 17.465,35 17,34.535 17,33.962 V 30.038 C 17,29.465 17.465,29 18.038,29 h 3.924 C 22.535,29 23,29.465 23,30.038 v 3.924 C 23,34.535 22.535,35 21.962,35 Z"
         id="path906" />
      <path
         style="fill:#25ae88"
         d="M 39.962,35 H 36.038 C 35.465,35 35,34.535 35,33.962 V 30.038 C 35,29.465 35.465,29 36.038,29 h 3.924 C 40.535,29 41,29.465 41,30.038 v 3.924 C 41,34.535 40.535,35 39.962,35 Z"
         id="path908" />
      <g
         id="g910">
</g>
      <g
         id="g912">
</g>
      <g
         id="g914">
</g>
      <g
         id="g916">
</g>
      <g
         id="g918">
</g>
      <g
         id="g920">
</g>
      <g
         id="g922">
</g>
      <g
         id="g924">
</g>
      <g
         id="g926">
</g>
      <g
         id="g928">
</g>
      <g
         id="g930">
</g>
      <g
         id="g932">
</g>
      <g
         id="g934">
</g>
      <g
         id="g936">
</g>
      <g
         id="g938">
</g>
    </g>
    <flowRoot
       transform="matrix(0.26458333,0,0,0.34195348,-19.777945,53.512245)"
       style="font-style:normal;font-variant:normal;font-weight:bold;font-stretch:normal;font-size:74.66666412px;line-height:1.25;font-family:Arial;-inkscape-font-specification:'Arial, Bold';font-variant-ligatures:normal;font-variant-caps:normal;font-variant-numeric:normal;font-feature-settings:normal;text-align:start;letter-spacing:54.49000549px;word-spacing:0px;writing-mode:lr-tb;text-anchor:start;fill:#a97800;fill-opacity:1;stroke:none;"
       id="flowRoot978"
       xml:space="preserve"><flowRegion
         style="font-size:74.66666412px;letter-spacing:54.49000549px;word-spacing:0px;fill:#a97800;fill-opacity:1;"
         id="flowRegion980"><rect
           style="font-size:74.66666412px;letter-spacing:54.49000549px;word-spacing:0px;fill:#a97800;fill-opacity:1;"
           y="32.26881"
           x="337.39096"
           height="101.01525"
           width="806.10175"
           id="rect982" /></flowRegion><flowPara
         id="flowPara984">GIVEAWAY</flowPara></flowRoot>    <g
       transform="matrix(0.23734697,0,0,0.22866732,204.06871,111.05117)"
       id="g1120">
      <g
         id="g1057">
	<g
   id="g1055">
		<path
   style="fill:#c78a00;fill-opacity:1"
   d="m 295.772,127.867 c 0.229,0.196 0.649,0.966 1.768,2.078 l 51.291,51.281 c 0.994,0.996 1.716,1.437 2.124,1.633 0.16,-0.423 0.353,-1.242 0.353,-2.653 v -43.673 c 0,-5.001 -4.071,-9.061 -9.072,-9.061 H 298.57 c -1.587,-0.016 -2.408,0.238 -2.798,0.395 z"
   id="path1041" />

		<path
   style="fill:#c78a00;fill-opacity:1"
   d="m 127.123,462.863 c 2.394,7.73 9.525,13.394 18.043,13.394 h 15.11 c 8.406,0 15.455,-5.511 17.947,-13.085 h 121.702 c 2.492,7.574 9.537,13.085 17.949,13.085 h 15.107 c 8.597,0 15.773,-5.755 18.102,-13.59 19.288,-2.484 34.24,-18.782 34.24,-38.748 V 39.25 C 385.323,17.578 367.75,0 346.07,0 H 130.184 c -21.676,0 -39.25,17.578 -39.25,39.25 v 384.668 c 0,20.632 15.969,37.351 36.189,38.945 z M 359.158,136.527 v 43.671 c 0,7.858 -4.212,10.646 -7.814,10.646 -2.661,0 -5.382,-1.371 -8.062,-4.076 l -51.304,-51.272 c -4.925,-4.93 -4.323,-8.863 -3.526,-10.776 0.798,-1.907 3.142,-5.113 10.111,-5.113 h 43.673 c 9.332,-0.002 16.922,7.592 16.922,16.92 z M 174.344,88.315 V 86.353 29.438 27.474 25.513 h 127.568 v 1.961 1.964 56.915 1.962 1.964 H 174.344 Z m -57.246,48.212 c 0,-9.328 7.59,-16.914 16.916,-16.914 h 43.673 c 6.965,0 9.326,3.206 10.111,5.114 0.802,1.905 1.393,5.847 -3.53,10.776 l -51.287,51.281 c -2.699,2.701 -5.408,4.073 -8.069,4.073 -3.603,0 -7.812,-2.787 -7.812,-10.644 v -43.686 z m 121.03,28.449 c 72.985,0 132.143,59.166 132.143,132.141 0,72.983 -59.157,132.153 -132.143,132.153 -72.985,0 -132.146,-59.17 -132.146,-132.153 0,-72.983 59.161,-132.141 132.146,-132.141 z"
   id="path1043" />

		<polygon
   style="fill:#c78a00;fill-opacity:1"
   points="268.547,72.614 268.547,43.176 297.74,29.438 178.51,29.438 207.708,43.176 207.708,72.614 178.51,86.354 297.74,86.354 "
   id="polygon1045" />

		<path
   style="fill:#c78a00;fill-opacity:1"
   d="m 127.429,181.226 51.287,-51.281 c 1.116,-1.112 1.531,-1.881 1.679,-2.258 -0.186,0.024 -1.146,-0.223 -2.709,-0.223 h -43.673 c -4.997,0 -9.065,4.067 -9.065,9.063 v 43.671 c 0,1.411 0.196,2.226 0.353,2.653 0.419,-0.189 1.13,-0.629 2.128,-1.625 z"
   id="path1047" />

		<path
   style="fill:#c78a00;fill-opacity:1"
   d="m 238.128,413.568 c 64.213,0 116.446,-52.237 116.446,-116.452 0,-64.205 -52.233,-116.439 -116.446,-116.439 -64.211,0 -116.445,52.234 -116.445,116.439 0,64.215 52.234,116.452 116.445,116.452 z m 0,-221.909 c 58.158,0 105.474,47.302 105.474,105.457 0,58.16 -47.315,105.468 -105.474,105.468 -58.158,0 -105.471,-47.315 -105.471,-105.468 0,-58.155 47.313,-105.457 105.471,-105.457 z"
   id="path1049" />

		<path
   style="fill:#c78a00;fill-opacity:1"
   d="m 238.128,394.733 c 53.818,0 97.623,-43.789 97.623,-97.617 0,-53.823 -43.789,-97.615 -97.623,-97.615 -53.83,0 -97.621,43.792 -97.621,97.615 0,53.828 43.8,97.617 97.621,97.617 z m 0,-139.619 c 23.161,0 42.012,18.835 42.012,42.002 0,23.167 -18.843,42.014 -42.012,42.014 -23.169,0 -42.008,-18.847 -42.008,-42.014 0,-23.167 18.847,-42.002 42.008,-42.002 z"
   id="path1051" />

		<path
   style="fill:#c78a00;fill-opacity:1"
   d="m 238.128,323.429 c 14.505,0 26.311,-11.806 26.311,-26.312 0,-14.503 -11.806,-26.301 -26.311,-26.301 -14.509,0 -26.307,11.798 -26.307,26.301 0,14.506 11.798,26.312 26.307,26.312 z"
   id="path1053" />

	</g>

</g>
      <g
         id="g1059">
</g>
      <g
         id="g1061">
</g>
      <g
         id="g1063">
</g>
      <g
         id="g1065">
</g>
      <g
         id="g1067">
</g>
      <g
         id="g1069">
</g>
      <g
         id="g1071">
</g>
      <g
         id="g1073">
</g>
      <g
         id="g1075">
</g>
      <g
         id="g1077">
</g>
      <g
         id="g1079">
</g>
      <g
         id="g1081">
</g>
      <g
         id="g1083">
</g>
      <g
         id="g1085">
</g>
      <g
         id="g1087">
</g>
    </g>
    <flowRoot
       transform="matrix(0.26458333,0,0,0.26458333,4.2763124,58.6104)"
       style="font-style:normal;font-variant:normal;font-weight:bold;font-stretch:normal;font-size:64px;line-height:1.14999998;font-family:Arial;-inkscape-font-specification:'Arial, Bold';font-variant-ligatures:normal;font-variant-caps:normal;font-variant-numeric:normal;font-feature-settings:normal;text-align:start;letter-spacing:1.4000001px;word-spacing:0px;writing-mode:lr-tb;text-anchor:start;fill:#a57500;fill-opacity:1;stroke:none;"
       id="flowRoot1122"
       xml:space="preserve"><flowRegion
         style="font-size:64px;line-height:1.14999998;letter-spacing:1.4000001px;fill:#a57500;fill-opacity:1;"
         id="flowRegion1124"><rect
           style="font-size:64px;line-height:1.14999998;letter-spacing:1.4000001px;fill:#a57500;fill-opacity:1;"
           y="620.17761"
           x="119.198"
           height="72.730988"
           width="337.39096"
           id="rect1126" /></flowRegion><flowPara
         id="flowPara1128">1st PRIZE</flowPara></flowRoot>    <flowRoot
       xml:space="preserve"
       id="flowRoot1136"
       style="font-style:normal;font-variant:normal;font-weight:bold;font-stretch:normal;font-size:64px;line-height:1.14999998;font-family:Arial;-inkscape-font-specification:'Arial, Bold';font-variant-ligatures:normal;font-variant-caps:normal;font-variant-numeric:normal;font-feature-settings:normal;text-align:start;letter-spacing:1.4000001px;word-spacing:0px;writing-mode:lr-tb;text-anchor:start;fill:#a57600;fill-opacity:1;stroke:none;"
       transform="matrix(0.26458333,0,0,0.26458333,184.41597,58.075861)"><flowRegion
         id="flowRegion1132"
         style="font-size:64px;line-height:1.14999998;letter-spacing:1.4000001px;fill:#a57600;fill-opacity:1;"><rect
           id="rect1130"
           width="337.39096"
           height="72.730988"
           x="119.198"
           y="620.17761"
           style="font-size:64px;line-height:1.14999998;letter-spacing:1.4000001px;fill:#a57600;fill-opacity:1;" /></flowRegion><flowPara
         id="flowPara1134">2nd PRIZE</flowPara></flowRoot>    <flowRoot
       transform="matrix(0.26458333,0,0,0.26458333,35.279578,67.697564)"
       style="font-style:normal;font-variant:normal;font-weight:bold;font-stretch:normal;font-size:20.20400047px;line-height:1.25;font-family:Arial;-inkscape-font-specification:'Arial, Bold';font-variant-ligatures:normal;font-variant-caps:normal;font-variant-numeric:normal;font-feature-settings:normal;text-align:start;letter-spacing:0px;word-spacing:0px;writing-mode:lr-tb;text-anchor:start;fill:#b98800;fill-opacity:1;stroke:none;"
       id="flowRoot1138"
       xml:space="preserve"><flowRegion
         style="fill:#b98800;fill-opacity:1;"
         id="flowRegion1140"><rect
           style="fill:#b98800;fill-opacity:1;"
           y="844.43146"
           x="878.8327"
           height="26.263977"
           width="250.51785"
           id="rect1142" /></flowRegion><flowPara
         id="flowPara1144">*Terms &amp; condition apply</flowPara></flowRoot>  </g>
</svg>
